<svg width="21" height="20" viewBox="0 0 21 20" fill="none" xmlns="http://www.w3.org/2000/svg">
<path d="M10.6413 19.5238C10.6235 19.5238 10.5717 19.5221 10.5471 19.5238C10.4863 19.5226 10.4517 19.5238 10.4529 19.5238C9.20102 19.5238 8.4205 18.9649 7.6278 18.381C7.14431 18.0508 6.65232 17.6985 6.0269 17.619C5.79002 17.5532 5.50847 17.5295 5.27354 17.5238C4.74645 17.5295 4.3601 17.6061 4.04932 17.619C3.90634 17.696 3.75838 17.7252 3.67264 17.7143C3.52821 17.7252 3.40121 17.6994 3.39013 17.5238C3.29763 17.3416 3.26311 17.1813 3.20179 17.0476C3.14309 16.6258 3.08185 16.3796 2.91928 16.381C0.987737 16.0519 0.435336 15.64 0.282509 15.3333C0.29518 15.3065 0.284905 15.2644 0.282509 15.2381C0.276685 15.1107 0.354777 15.0116 0.47085 14.9524C3.42957 14.499 4.75919 11.4281 4.80269 11.3333C4.81591 11.2944 4.81756 11.2907 4.80269 11.3333C5.00087 10.9146 5.03622 10.5911 4.89686 10.2857C4.72179 9.8402 4.05801 9.62656 3.57847 9.52381C3.51136 9.45082 3.40943 9.41834 3.29596 9.42857C2.45218 9.03479 2.37943 8.67457 2.44843 8.47619C2.47273 8.17775 2.88539 7.95953 3.20179 8C3.31078 7.95953 3.39134 7.97619 3.4843 8C3.85373 8.19524 4.20885 8.29019 4.52018 8.28572C4.93963 8.29019 5.12459 8.10987 5.17937 8.09524C5.13609 7.8829 5.12294 7.67052 5.0852 7.42857C5.02101 6.03097 4.91127 4.26565 5.36771 3.2381C6.68438 0.238625 9.50311 0.00374985 10.3587 1.90735e-06C10.3568 0.00374985 10.7004 1.90735e-06 10.7354 1.90735e-06C11.5837 1.90735e-06 14.409 0.234877 15.7265 3.2381C16.1825 4.26441 16.0727 6.03097 16.009 7.42857V7.52381C15.9683 7.70966 15.9564 7.90164 15.9148 8.09524C15.9679 8.10778 16.1381 8.27353 16.4798 8.28572C16.8146 8.27728 17.15 8.18274 17.5157 8C17.626 7.95703 17.746 7.9462 17.7982 7.90476C17.9523 7.9462 18.0785 7.97077 18.1749 8C18.4874 8.12486 18.6827 8.336 18.6457 8.57143C18.6909 8.76535 18.5339 9.0781 17.7982 9.42857C17.6852 9.41792 17.5832 9.45041 17.5157 9.52381C17.0353 9.62656 16.372 9.8402 16.1973 10.2857C16.0575 10.5911 16.0929 10.9142 16.2915 11.3333C16.2762 11.2907 16.2778 11.294 16.2915 11.3333C16.3346 11.4281 17.663 14.4981 20.6233 14.9524C20.739 15.0116 20.8175 15.1107 20.8117 15.2381C20.8089 15.2648 20.7986 15.3073 20.8117 15.3333C20.6584 15.6384 20.1068 16.0498 18.1749 16.381C18.0197 16.3763 17.9585 16.5845 17.8924 17.0476C17.8302 17.1796 17.7957 17.3358 17.704 17.5238C17.7069 17.6423 17.6194 17.7089 17.5157 17.7143H17.4215C17.3457 17.7089 17.2006 17.6902 17.0448 17.619C16.6897 17.589 16.3235 17.5295 15.8206 17.5238C15.5853 17.5295 15.3037 17.5532 15.0673 17.619C14.4418 17.6985 13.9503 18.05 13.4664 18.381C12.6737 18.9649 11.8932 19.5238 10.6413 19.5238Z" fill="white"/>
<path fill-rule="evenodd" clip-rule="evenodd" d="M5.10027 3.39473C6.4853 0.248234 9.42129 0.00333786 10.2876 0.00333786C10.2987 0.00333786 10.3637 0.00275803 10.4395 0.00208092C10.5455 0.00113487 10.6725 0 10.703 0C11.5717 0 14.5139 0.244896 15.8997 3.39306C16.3658 4.45233 16.2542 6.25211 16.1641 7.6977L16.1604 7.75903C16.1575 7.80601 16.1547 7.85239 16.1519 7.89824C16.1453 8.0063 16.139 8.11138 16.1332 8.21419C16.1982 8.25048 16.3119 8.29513 16.486 8.30305C16.7483 8.29137 17.0526 8.20376 17.391 8.04314C17.5351 7.97472 17.6891 7.96053 17.7932 7.96053C17.9452 7.96053 18.1004 7.99057 18.2321 8.04606C18.6208 8.18665 18.8654 8.47035 18.8715 8.78867C18.879 9.19377 18.522 9.54338 17.8101 9.82832C17.7232 9.86295 17.6178 9.89716 17.5054 9.93346C17.1036 10.0624 16.4963 10.2576 16.3316 10.651C16.2464 10.855 16.2802 11.117 16.4424 11.4516C16.4955 11.5776 17.7801 14.5464 20.6354 15.0233C20.8548 15.06 21.0117 15.2577 20.9993 15.483C20.9956 15.5506 20.9796 15.6178 20.9524 15.6824C20.7383 16.1877 19.835 16.559 18.1893 16.8176C18.1352 16.8919 18.079 17.1516 18.044 17.3139L18.0427 17.3195C18.0077 17.4822 17.9723 17.6428 17.9225 17.8135C17.8542 18.0509 17.6817 18.1819 17.4128 18.1819C17.2963 18.1819 17.137 18.1618 16.9385 18.1222C16.6223 18.0596 16.2678 18.002 15.8194 18.002C15.5588 18.002 15.2887 18.025 15.017 18.0705C14.4866 18.1601 14.0359 18.4827 13.5129 18.8572L13.5122 18.8577C12.7649 19.3934 11.9176 20 10.6297 20C10.5721 20 10.5177 19.9983 10.4761 19.9962C10.4407 19.9992 10.4053 20 10.3699 20C9.08244 20 8.23512 19.3934 7.48702 18.8573L7.48581 18.8564C6.96426 18.483 6.5133 18.1601 5.983 18.0705C5.71126 18.025 5.44117 18.002 5.18055 18.002C4.71078 18.002 4.33529 18.0763 4.06108 18.1305C3.87869 18.1668 3.72059 18.1981 3.58678 18.1981C3.25575 18.1981 3.12689 17.9937 3.07748 17.8226C3.02684 17.6483 2.99143 17.4835 2.95726 17.3233L2.95681 17.3212C2.92177 17.1587 2.8648 16.8945 2.80986 16.8197C1.16462 16.561 0.261301 16.1889 0.0467943 15.6816C0.0200324 15.6169 0.00438696 15.5506 0.000681461 15.4834C-0.0116702 15.2586 0.145196 15.06 0.364644 15.0233C3.2187 14.5472 4.50409 11.578 4.56709 11.4304C4.71943 11.1175 4.7536 10.855 4.66837 10.651C4.50337 10.2579 3.89671 10.0626 3.49487 9.93327L3.49414 9.93304C3.38256 9.89758 3.27716 9.86378 3.18947 9.82832C2.21698 9.43908 2.08152 8.99184 2.13916 8.6852C2.21863 8.25966 2.73122 7.97388 3.15982 7.97388C3.28334 7.97388 3.39533 7.99725 3.49249 8.04314C3.85852 8.21711 4.18336 8.30472 4.45839 8.30472C4.66425 8.30472 4.79518 8.25466 4.86682 8.21461C4.85735 8.04356 4.84624 7.86666 4.83553 7.69645C4.74578 6.25169 4.6342 4.45358 5.10027 3.39473ZM15.7829 7.68868C15.8699 6.28947 15.9781 4.54827 15.5549 3.58734C14.2697 0.666933 11.5421 0.45138 10.7029 0.451797C10.7029 0.451797 10.3546 0.455139 10.3348 0.455139C9.53348 0.455139 6.81956 0.679464 5.53927 3.58901C5.11616 4.55014 5.22423 6.28952 5.31118 7.68898L5.31132 7.6912C5.31348 7.72642 5.31564 7.76145 5.31779 7.7963C5.32917 7.98096 5.34023 8.16037 5.34924 8.33327L5.35419 8.42099L5.29607 8.48658C5.27092 8.5154 5.03267 8.7673 4.49846 8.7673C4.15881 8.7673 3.77093 8.66495 3.34636 8.4636C3.30844 8.44522 3.25691 8.43603 3.19838 8.43603C2.93705 8.43603 2.63738 8.61399 2.60481 8.78902C2.57596 8.94107 2.76681 9.1913 3.3884 9.44027C3.46013 9.4691 3.55493 9.49959 3.66458 9.53468L3.66576 9.53506C4.14474 9.68921 4.86675 9.92157 5.10975 10.5022C5.24702 10.8301 5.20951 11.2161 4.99846 11.6505C4.91148 11.8565 3.54545 14.9753 0.483218 15.5397C0.535567 15.6637 0.866564 16.094 2.92798 16.4165C3.24991 16.467 3.32946 16.8355 3.42138 17.2616C3.45394 17.4136 3.48816 17.5715 3.53432 17.7307C3.54999 17.7854 3.55164 17.7896 3.62583 17.7896C3.71734 17.7896 3.85625 17.7625 4.01701 17.7303C4.30967 17.6722 4.70992 17.5933 5.22146 17.5933C5.5067 17.5933 5.80101 17.6188 6.09615 17.668C6.7264 17.7746 7.23959 18.1422 7.78287 18.5315C8.51205 19.0541 9.26638 19.5942 10.4168 19.5942C10.4461 19.5942 10.4745 19.593 10.5285 19.5901C10.578 19.5926 10.6271 19.5942 10.6769 19.5942C11.8274 19.5942 12.5817 19.0541 13.3109 18.5311L13.312 18.5303C13.8549 18.1417 14.3678 17.7745 14.998 17.668C15.2932 17.6188 15.5875 17.5933 15.8727 17.5933C16.3843 17.5933 16.7845 17.6643 17.0767 17.7224C17.2375 17.7541 17.3768 17.7733 17.4922 17.7733C17.5434 17.7733 17.5458 17.7704 17.5598 17.7224C17.606 17.5632 17.6402 17.4095 17.6728 17.2574L17.6731 17.2562C17.7649 16.8306 17.8438 16.4649 18.1662 16.4144C20.2272 16.0923 20.5586 15.6629 20.6233 15.4883C17.5483 14.9749 16.1827 11.8556 16.0957 11.6505C15.8843 11.2161 15.8472 10.8297 15.984 10.5017C16.2273 9.9218 16.9489 9.68939 17.4274 9.53524L17.4292 9.53468C17.5388 9.49959 17.6336 9.4691 17.7058 9.44027C18.4411 9.14577 18.4939 8.89011 18.4927 8.81868C18.4902 8.69294 18.3434 8.55383 18.1237 8.4753C18.0417 8.44021 17.9424 8.42266 17.8488 8.42266C17.7668 8.42266 17.6889 8.43603 17.6312 8.4636C17.235 8.65158 16.8706 8.75309 16.531 8.76562C16.0417 8.74641 15.8216 8.51331 15.7985 8.48699L15.74 8.42099L15.7449 8.33285C15.7556 8.12732 15.7688 7.91218 15.7829 7.68995L15.7829 7.68868Z" fill="#030303"/>
</svg>
