<svg width="26" height="26" viewBox="0 0 26 26" fill="none" xmlns="http://www.w3.org/2000/svg">
<path fill-rule="evenodd" clip-rule="evenodd" d="M13.9789 20.4288C13.9789 20.5717 14.0471 20.7145 14.1493 20.7503C15.5189 21.2888 15.1715 23.5003 13.5697 23.5H10.1945C10.024 24.8928 8.86481 26 7.50107 26C6.13732 26 4.97813 24.8928 4.80766 23.5H1.43238C-0.189458 23.5 -0.503802 21.2835 0.852787 20.7499C0.955069 20.7145 1.02326 20.5713 1.02326 20.4288V14.9287C1.02326 13.0716 1.73922 11.3215 3.00069 10.0358C3.95532 9.1072 5.1145 8.46433 6.37597 8.25004C6.2396 8.00004 6.13732 7.71432 6.13732 7.4286C6.13732 6.64287 6.751 6 7.50107 6C8.25113 6 8.86481 6.64287 8.86481 7.4286C8.86481 7.75003 8.79663 8.00004 8.62616 8.25004C11.6264 8.82148 13.9789 11.6787 13.9789 15.0716V20.4288ZM8.18294 7.4286C8.18294 7.03573 7.8761 6.7143 7.50107 6.7143C7.12603 6.7143 6.81919 7.03573 6.81919 7.4286C6.81919 7.82146 7.12603 8.1429 7.50107 8.1429C7.8761 8.1429 8.18294 7.82146 8.18294 7.4286ZM7.50107 25.2861C6.47825 25.2861 5.66 24.5003 5.48954 23.5003H9.5126C9.34213 24.5003 8.52388 25.2861 7.50107 25.2861ZM1.43238 22.786H13.5697C14.42 22.786 14.5762 21.6553 13.9107 21.3928C13.5357 21.2503 13.297 20.8571 13.297 20.4288V15.0716C13.297 11.7394 10.7372 8.85719 7.50107 8.85719C6.00094 8.85719 4.569 9.46435 3.478 10.5715C2.31882 11.7144 1.70513 13.2501 1.70513 14.9287V20.4288C1.70513 20.8574 1.46647 21.2503 1.09144 21.3931C0.346836 21.8392 0.713003 22.786 1.43238 22.786Z" fill="#2C3E51"/>
<path fill-rule="evenodd" clip-rule="evenodd" d="M17.5 17C22.1944 17 26 13.1944 26 8.5C26 3.80558 22.1944 0 17.5 0C12.8056 0 9 3.80558 9 8.5C9 13.1944 12.8056 17 17.5 17Z" fill="#1DCE6C"/>
<path d="M20.3564 11H15.4834V10.0332L17.7832 7.58203C18.099 7.23698 18.3317 6.93587 18.4814 6.67871C18.6344 6.42155 18.7109 6.17741 18.7109 5.94629C18.7109 5.63053 18.6312 5.38314 18.4717 5.2041C18.3122 5.02181 18.0843 4.93066 17.7881 4.93066C17.4691 4.93066 17.2168 5.04134 17.0312 5.2627C16.849 5.48079 16.7578 5.76888 16.7578 6.12695H15.3418C15.3418 5.69401 15.4443 5.2985 15.6494 4.94043C15.8577 4.58236 16.1507 4.30241 16.5283 4.10059C16.9059 3.89551 17.334 3.79297 17.8125 3.79297C18.5449 3.79297 19.113 3.96875 19.5166 4.32031C19.9235 4.67188 20.127 5.16829 20.127 5.80957C20.127 6.16113 20.0358 6.51921 19.8535 6.88379C19.6712 7.24837 19.3587 7.67318 18.916 8.1582L17.2998 9.8623H20.3564V11Z" fill="white"/>
</svg>
